Coordinates
version=1
nRows=12
nColumns=63
inDegrees=yes

Units are S.I. units (second, meters, Newtons, ...)
If the header above contains a line with 'inDegrees', this indicates whether rotational values are in degrees (yes) or radians (no).

endheader
time	pelvis_tilt	pelvis_list	pelvis_rotation	pelvis_tx	pelvis_ty	pelvis_tz	hip_flexion_r	hip_adduction_r	hip_rotation_r	knee_angle_r	knee_angle_r_beta	ankle_angle_r	subtalar_angle_r	mtp_angle_r	hip_flexion_l	hip_adduction_l	hip_rotation_l	knee_angle_l	knee_angle_l_beta	ankle_angle_l	subtalar_angle_l	mtp_angle_l	L5_S1_Flex_Ext	L5_S1_Lat_Bending	L5_S1_axial_rotation	L4_L5_Flex_Ext	L4_L5_Lat_Bending	L4_L5_axial_rotation	L3_L4_Flex_Ext	L3_L4_Lat_Bending	L3_L4_axial_rotation	L2_L3_Flex_Ext	L2_L3_Lat_Bending	L2_L3_axial_rotation	L1_L2_Flex_Ext	L1_L2_Lat_Bending	L1_L2_axial_rotation	L1_T12_Flex_Ext	L1_T12_Lat_Bending	L1_T12_axial_rotation	Abs_r3	Abs_r2	Abs_r1	Abs_t1	Abs_t2	neck_flexion	neck_bending	neck_rotation	arm_flex_r	arm_add_r	arm_rot_r	elbow_flex_r	pro_sup_r	wrist_flex_r	wrist_dev_r	arm_flex_l	arm_add_l	arm_rot_l	elbow_flex_l	pro_sup_l	wrist_flex_l	wrist_dev_l
3.745763	-11.896510	-13.689576	53.428796	0.217931	0.855167	0.566347	42.865282	-0.211898	-7.979182	45.962102	0.802190	23.136241	8.807245	0.000000	31.895629	-5.253407	-2.171178	34.028321	0.593906	44.000811	2.001296	0.000000	0.096269	-0.614005	-3.529528	0.178781	-0.816627	-3.750124	0.158160	-1.492892	-3.750124	0.110026	-1.492892	-3.088337	0.089395	-1.252079	-2.867742	0.055008	-0.951094	-2.647146	0.687640	-6.945748	-19.630178	0.000000	0.000000	26.293392	10.119791	18.378083	-70.875667	-30.902362	-36.171222	127.510757	89.114182	-12.112992	-6.128239	-299.073945	-57.054016	-333.308132	57.500659	47.402770	-6.282721	11.883736
3.762712	-11.639607	-13.627723	53.157385	0.220252	0.855939	0.566415	42.788269	0.294919	-8.138532	46.020430	0.803208	22.298557	8.068992	0.000000	31.499896	-5.688562	-2.379105	33.875680	0.591242	43.922220	1.861096	0.000000	0.083294	-0.630379	-3.484919	0.154686	-0.838404	-3.702727	0.136845	-1.532704	-3.702727	0.095197	-1.532704	-3.049304	0.077347	-1.285469	-2.831497	0.047594	-0.976457	-2.613690	0.594964	-7.130975	-19.382076	0.000000	0.000000	25.896948	10.362457	18.364568	-71.661623	-31.370957	-37.245219	128.274935	89.261348	-13.173173	-9.207804	-299.973843	-57.116034	-332.814571	57.215360	50.013289	-5.973267	10.714478
3.779661	-11.437398	-13.510874	52.852220	0.222886	0.857011	0.566545	42.655103	0.808965	-8.095068	45.948936	0.801960	21.922567	7.658071	0.000000	31.025172	-6.091580	-2.708429	33.579200	0.586068	43.932759	1.862778	0.000000	0.072235	-0.660564	-3.407232	0.134148	-0.878551	-3.620185	0.118675	-1.606096	-3.620185	0.082557	-1.606096	-2.981328	0.067077	-1.347023	-2.768376	0.041275	-1.023214	-2.555424	0.515967	-7.472436	-18.950005	0.000000	0.000000	25.501347	10.589622	18.067461	-72.638476	-31.750728	-38.247823	128.954203	89.352348	-14.401346	-12.328034	-300.564699	-57.112800	-331.914751	56.850397	52.420266	-5.798567	9.701180
3.796610	-11.284120	-13.327708	52.521171	0.225823	0.858382	0.566648	42.444921	1.314517	-7.852917	45.771556	0.798864	21.959297	7.555190	0.000000	30.442432	-6.432228	-3.085300	33.129802	0.578224	43.979476	1.900706	0.000000	0.062037	-0.705986	-3.294661	0.115209	-0.938962	-3.500577	0.101921	-1.716535	-3.500577	0.070902	-1.716535	-2.882828	0.057608	-1.439647	-2.676912	0.035448	-1.093573	-2.470996	0.443124	-7.986257	-18.323914	0.000000	0.000000	25.121036	10.864790	17.351768	-73.942958	-32.110477	-39.042022	129.561249	89.522978	-16.472744	-15.619593	-300.909741	-56.983806	-330.775987	56.422202	54.879211	-5.763154	8.881816
3.813559	-11.164377	-13.084017	52.158873	0.229066	0.860047	0.566634	42.136952	1.818326	-7.416339	45.492619	0.793996	22.341025	7.743889	0.000000	29.728712	-6.711865	-3.487753	32.527365	0.567710	44.004311	1.935357	0.000000	0.052697	-0.763942	-3.144322	0.097863	-1.016043	-3.340842	0.086576	-1.857448	-3.340842	0.060227	-1.857448	-2.751281	0.048934	-1.557830	-2.554761	0.030111	-1.183346	-2.358241	0.376408	-8.641864	-17.487773	0.000000	0.000000	24.766565	11.196278	16.200855	-75.492168	-32.380941	-40.062566	130.248913	90.059816	-18.013730	-18.187025	-301.115459	-56.699018	-329.505765	55.936860	57.409741	-5.938560	8.207761
3.830508	-11.061762	-12.819243	51.782105	0.232562	0.861950	0.566363	41.739024	2.340983	-6.796997	45.113023	0.787371	22.977912	8.149035	0.000000	28.901991	-6.941260	-3.849023	31.788656	0.554817	43.934269	1.906791	0.000000	0.047426	-0.827836	-2.963095	0.088075	-1.101022	-3.148288	0.077916	-2.012801	-3.148288	0.054203	-2.012801	-2.592708	0.044040	-1.688124	-2.407515	0.027099	-1.282318	-2.222321	0.338759	-9.364650	-16.479844	0.000000	0.000000	24.460002	11.595368	14.686631	-77.236805	-32.618219	-41.370139	131.060748	90.703933	-18.842842	-19.914866	-301.395887	-56.238785	-328.332688	55.447291	60.042549	-6.574889	7.566479
3.847458	-10.963136	-12.529302	51.385652	0.236303	0.864097	0.565751	41.228447	2.865682	-6.057055	44.640852	0.779130	23.778025	8.765719	0.000000	27.919645	-7.121866	-4.157527	30.893238	0.539189	43.703380	1.793638	0.000000	0.044226	-0.895322	-2.755573	0.082132	-1.190779	-2.927796	0.072659	-2.176887	-2.927796	0.050546	-2.176887	-2.411126	0.041068	-1.825742	-2.238903	0.025271	-1.386854	-2.066680	0.315901	-10.128066	-15.325669	0.000000	0.000000	24.212942	12.047815	12.905790	-78.961241	-32.854827	-42.998882	131.984152	90.888564	-18.514943	-20.471079	-301.858298	-55.614220	-327.413714	54.995247	62.709863	-7.667900	6.947947
3.864407	-10.856687	-12.245326	50.994225	0.240201	0.866443	0.564747	40.609558	3.381634	-5.268686	44.067052	0.769115	24.639437	9.568153	0.000000	26.815449	-7.248514	-4.328957	29.875751	0.521430	43.248657	1.517837	0.000000	0.045024	-0.963009	-2.522489	0.083614	-1.280802	-2.680144	0.073970	-2.341461	-2.680144	0.051458	-2.341461	-2.207178	0.041809	-1.963768	-2.049522	0.025727	-1.491701	-1.891867	0.321601	-10.893753	-14.029325	0.000000	0.000000	24.036015	12.539467	10.754770	-80.566187	-33.108478	-44.790826	132.939627	90.449002	-17.594969	-20.212071	-302.494327	-54.765188	-326.730596	54.537418	65.072961	-9.113212	6.203863
3.881356	-10.716988	-11.989974	50.625359	0.244152	0.868968	0.563295	39.883083	3.883194	-4.522761	43.402284	0.757513	25.460515	10.523027	0.000000	25.596876	-7.353250	-4.366164	28.742313	0.501648	42.566640	1.117008	0.000000	0.049178	-1.024148	-2.276539	0.091328	-1.362117	-2.418823	0.080794	-2.490114	-2.418823	0.056205	-2.490114	-1.991972	0.045667	-2.088443	-1.849688	0.028100	-1.586406	-1.707404	0.351273	-11.585370	-12.661429	0.000000	0.000000	23.917267	13.035742	8.369597	-81.943885	-33.428514	-46.739092	133.876732	89.296986	-16.123880	-19.309757	-303.461708	-53.688987	-326.556350	54.174590	67.184937	-10.870958	5.422720
3.898305	-10.516351	-11.792144	50.308085	0.248016	0.871646	0.561389	39.059398	4.378125	-3.888081	42.651660	0.744412	26.136738	11.529268	0.000000	24.294074	-7.465803	-4.235541	27.509916	0.480139	41.679177	0.597658	0.000000	0.056150	-1.071399	-2.032721	0.104276	-1.424960	-2.159766	0.092249	-2.604998	-2.159766	0.064174	-2.604998	-1.778631	0.052141	-2.184796	-1.651586	0.032084	-1.659596	-1.524541	0.401074	-12.119875	-11.305386	0.000000	0.000000	23.833141	13.514134	5.900874	-83.079643	-33.886495	-48.790350	134.750926	87.551251	-14.509492	-18.031490	-304.876340	-52.364312	-327.126216	53.981515	69.129469	-12.730724	4.719900
3.915254	-10.247317	-11.662408	50.063466	0.251693	0.874448	0.559103	38.167604	4.879005	-3.367090	41.843776	0.730312	26.537215	12.356130	0.000000	22.938091	-7.606960	-3.942858	26.192811	0.457151	40.639903	0.011734	0.000000	0.065090	-1.102358	-1.806101	0.120878	-1.466135	-1.918982	0.106936	-2.680272	-1.918982	0.074391	-2.680272	-1.580338	0.060442	-2.247927	-1.467457	0.037192	-1.707552	-1.354575	0.464929	-12.470089	-10.044990	0.000000	0.000000	23.768851	13.993312	3.477736	-83.974908	-34.534339	-50.915232	135.528129	85.314515	-12.880312	-16.452118	-306.774685	-50.814818	-328.509149	54.042831	71.052620	-14.574890	4.265704
3.932203	-9.892983	-11.596273	49.907132	0.255101	0.877367	0.556523	37.218211	5.402222	-2.968582	41.001497	0.715611	26.511643	12.766958	0.000000	21.541187	-7.798013	-3.496868	24.800958	0.432858	39.502821	-0.623226	0.000000	0.072808	-1.114172	-1.610717	0.135212	-1.481849	-1.711387	0.119617	-2.708999	-1.711387	0.083213	-2.708999	-1.409377	0.067610	-2.272021	-1.308708	0.041603	-1.725853	-1.208038	0.520062	-12.603742	-8.958325	0.000000	0.000000	23.703310	14.475296	1.285522	-84.710244	-35.429214	-53.150283	136.253534	82.851535	-11.384430	-14.379555	-309.160698	-49.089565	-330.707285	54.372419	73.072569	-16.189659	4.063357
